<svg width="32" height="32" viewBox="0 0 32 32" fill="none" xmlns="http://www.w3.org/2000/svg">
<path fill-rule="evenodd" clip-rule="evenodd" d="M30 16C30 19.713 28.525 23.274 25.8995 25.8995C23.274 28.525 19.713 30 16 30C12.287 30 8.72601 28.525 6.1005 25.8995C3.475 23.274 2 19.713 2 16C2 12.287 3.475 8.72601 6.1005 6.1005C8.72601 3.475 12.287 2 16 2C19.713 2 23.274 3.475 25.8995 6.1005C28.525 8.72601 30 12.287 30 16ZM20 12C20 13.0609 19.5786 14.0783 18.8284 14.8284C18.0783 15.5786 17.0609 16 16 16C14.9391 16 13.9217 15.5786 13.1716 14.8284C12.4214 14.0783 12 13.0609 12 12C12 10.9391 12.4214 9.92172 13.1716 9.17157C13.9217 8.42143 14.9391 8 16 8C17.0609 8 18.0783 8.42143 18.8284 9.17157C19.5786 9.92172 20 10.9391 20 12ZM16 18C14.2687 17.999 12.5668 18.4476 11.061 19.302C9.5552 20.1564 8.29713 21.3873 7.41 22.874C8.43985 24.1629 9.74691 25.2032 11.2341 25.9175C12.7212 26.6318 14.3502 27.0018 16 27C17.6495 27.0015 19.2781 26.6313 20.7648 25.917C22.2516 25.2027 23.5584 24.1626 24.588 22.874C23.7012 21.3874 22.4435 20.1566 20.938 19.3022C19.4326 18.4478 17.731 17.9991 16 18Z" fill="#656565"/>
</svg>
